<svg xmlns="http://www.w3.org/2000/svg" width="140" height="220" viewBox="0 0 140 220" stroke-linejoin="round" stroke-linecap="round">
<filter id="f1" x="-50%" y="-50%" width="200%" height="200%"><feGaussianBlur stdDeviation="2.5"/></filter><ellipse cx="74" cy="213.5" rx="40" ry="8" fill="#2B1810" opacity="0.2" filter="url(#f1)"/><clipPath id="c2"><circle cx="70" cy="34" r="15" /></clipPath><circle cx="70" cy="34" r="15" fill="#A39F9A"/><g clip-path="url(#c2)"><g transform="translate(-4 -5)"><circle cx="70" cy="34" r="15" fill="#C9C6C2"/></g><ellipse cx="64" cy="28" rx="5" ry="3" transform="rotate(-30 64 28)" fill="#fff" opacity="0.4"/></g><circle cx="70" cy="34" r="15" fill="none" stroke="#2B1810" stroke-width="4.5"/><clipPath id="c4"><rect x="52" y="168" width="16" height="38" rx="7" /></clipPath><rect x="52" y="168" width="16" height="38" rx="7" fill="#5A2A3C"/><g clip-path="url(#c4)"><g transform="translate(-4 -5)"><rect x="52" y="168" width="16" height="38" rx="7" fill="#7A3B52"/></g></g><rect x="52" y="168" width="16" height="38" rx="7" fill="none" stroke="#2B1810" stroke-width="4.5"/><clipPath id="c5"><rect x="74" y="168" width="16" height="38" rx="7" /></clipPath><rect x="74" y="168" width="16" height="38" rx="7" fill="#5A2A3C"/><g clip-path="url(#c5)"><g transform="translate(-4 -5)"><rect x="74" y="168" width="16" height="38" rx="7" fill="#7A3B52"/></g></g><rect x="74" y="168" width="16" height="38" rx="7" fill="none" stroke="#2B1810" stroke-width="4.5"/><clipPath id="c6"><ellipse cx="58" cy="207" rx="13" ry="7" /></clipPath><ellipse cx="58" cy="207" rx="13" ry="7" fill="#1E1412"/><g clip-path="url(#c6)"><g transform="translate(-4 -5)"><ellipse cx="58" cy="207" rx="13" ry="7" fill="#3B2A26"/></g><ellipse cx="54" cy="204" rx="4" ry="2" transform="rotate(0 54 204)" fill="#fff" opacity="0.35"/></g><ellipse cx="58" cy="207" rx="13" ry="7" fill="none" stroke="#2B1810" stroke-width="4.5"/><clipPath id="c7"><ellipse cx="84" cy="207" rx="13" ry="7" /></clipPath><ellipse cx="84" cy="207" rx="13" ry="7" fill="#1E1412"/><g clip-path="url(#c7)"><g transform="translate(-4 -5)"><ellipse cx="84" cy="207" rx="13" ry="7" fill="#3B2A26"/></g><ellipse cx="80" cy="204" rx="4" ry="2" transform="rotate(0 80 204)" fill="#fff" opacity="0.35"/></g><ellipse cx="84" cy="207" rx="13" ry="7" fill="none" stroke="#2B1810" stroke-width="4.5"/><line x1="44" y1="128" x2="34" y2="164" stroke="#2B1810" stroke-width="25"/><line x1="44" y1="128" x2="34" y2="164" stroke="#7A4FA8" stroke-width="16"/><line x1="42.5" y1="126.5" x2="32.5" y2="162.5" stroke="#9B6BCC" stroke-width="12"/><line x1="96" y1="128" x2="106" y2="164" stroke="#2B1810" stroke-width="25"/><line x1="96" y1="128" x2="106" y2="164" stroke="#7A4FA8" stroke-width="16"/><line x1="94.5" y1="126.5" x2="104.5" y2="162.5" stroke="#9B6BCC" stroke-width="12"/><clipPath id="c8"><circle cx="33" cy="168" r="8.5" /></clipPath><circle cx="33" cy="168" r="8.5" fill="#D99465"/><g clip-path="url(#c8)"><g transform="translate(-4 -5)"><circle cx="33" cy="168" r="8.5" fill="#F2B98F"/></g></g><circle cx="33" cy="168" r="8.5" fill="none" stroke="#2B1810" stroke-width="4.5"/><clipPath id="c9"><circle cx="107" cy="168" r="8.5" /></clipPath><circle cx="107" cy="168" r="8.5" fill="#D99465"/><g clip-path="url(#c9)"><g transform="translate(-4 -5)"><circle cx="107" cy="168" r="8.5" fill="#F2B98F"/></g></g><circle cx="107" cy="168" r="8.5" fill="none" stroke="#2B1810" stroke-width="4.5"/><clipPath id="c10"><path d="M 47 120 Q 41 121 41 129 L 43 172 Q 43 178 50 178 L 90 178 Q 97 178 97 172 L 99 129 Q 99 121 93 120 Z" /></clipPath><path d="M 47 120 Q 41 121 41 129 L 43 172 Q 43 178 50 178 L 90 178 Q 97 178 97 172 L 99 129 Q 99 121 93 120 Z" fill="#C9AEE0"/><g clip-path="url(#c10)"><g transform="translate(-4 -5)"><path d="M 47 120 Q 41 121 41 129 L 43 172 Q 43 178 50 178 L 90 178 Q 97 178 97 172 L 99 129 Q 99 121 93 120 Z" fill="#E7D3F5"/></g><ellipse cx="54" cy="132" rx="8" ry="4" transform="rotate(-30 54 132)" fill="#fff" opacity="0.35"/></g><path d="M 47 120 Q 41 121 41 129 L 43 172 Q 43 178 50 178 L 90 178 Q 97 178 97 172 L 99 129 Q 99 121 93 120 Z" fill="none" stroke="#2B1810" stroke-width="4.5"/><path d="M 41 129 Q 41 121 47 120 L 58 120 L 64 178 L 50 178 Q 43 178 43 172 Z M 99 129 Q 99 121 93 120 L 82 120 L 76 178 L 90 178 Q 97 178 97 172 Z" fill="#9B6BCC" stroke="#2B1810" stroke-width="2.5"/><circle cx="62" cy="140" r="2.2" fill="#fff" stroke="#2B1810" stroke-width="1.2"/><circle cx="62" cy="154" r="2.2" fill="#fff" stroke="#2B1810" stroke-width="1.2"/><circle cx="62" cy="168" r="2.2" fill="#fff" stroke="#2B1810" stroke-width="1.2"/><circle cx="56" cy="124" r="2.8" fill="#fff" stroke="#2B1810" stroke-width="1.2"/><circle cx="59.5" cy="127.4441508912858" r="2.8" fill="#fff" stroke="#2B1810" stroke-width="1.2"/><circle cx="63" cy="130.36396103067892" r="2.8" fill="#fff" stroke="#2B1810" stroke-width="1.2"/><circle cx="66.5" cy="132.31491579260157" r="2.8" fill="#fff" stroke="#2B1810" stroke-width="1.2"/><circle cx="70" cy="133" r="2.8" fill="#fff" stroke="#2B1810" stroke-width="1.2"/><circle cx="73.5" cy="132.31491579260157" r="2.8" fill="#fff" stroke="#2B1810" stroke-width="1.2"/><circle cx="77" cy="130.36396103067892" r="2.8" fill="#fff" stroke="#2B1810" stroke-width="1.2"/><circle cx="80.5" cy="127.44415089128582" r="2.8" fill="#fff" stroke="#2B1810" stroke-width="1.2"/><circle cx="84" cy="124" r="2.8" fill="#fff" stroke="#2B1810" stroke-width="1.2"/><clipPath id="c11"><rect x="62" y="112" width="16" height="12" rx="4" /></clipPath><rect x="62" y="112" width="16" height="12" rx="4" fill="#D99465"/><g clip-path="url(#c11)"><g transform="translate(-4 -5)"><rect x="62" y="112" width="16" height="12" rx="4" fill="#D99465"/></g></g><rect x="62" y="112" width="16" height="12" rx="4" fill="none" stroke="#2B1810" stroke-width="2.5"/><clipPath id="c12"><circle cx="30" cy="90" r="9" /></clipPath><circle cx="30" cy="90" r="9" fill="#D99465"/><g clip-path="url(#c12)"><g transform="translate(-4 -5)"><circle cx="30" cy="90" r="9" fill="#F2B98F"/></g></g><circle cx="30" cy="90" r="9" fill="none" stroke="#2B1810" stroke-width="4.5"/><clipPath id="c13"><circle cx="110" cy="90" r="9" /></clipPath><circle cx="110" cy="90" r="9" fill="#D99465"/><g clip-path="url(#c13)"><g transform="translate(-4 -5)"><circle cx="110" cy="90" r="9" fill="#F2B98F"/></g></g><circle cx="110" cy="90" r="9" fill="none" stroke="#2B1810" stroke-width="4.5"/><circle cx="30" cy="101" r="3.5" fill="#FFFFFF" stroke="#2B1810" stroke-width="1.6"/><circle cx="110" cy="101" r="3.5" fill="#FFFFFF" stroke="#2B1810" stroke-width="1.6"/><clipPath id="c14"><circle cx="70" cy="84" r="40" /></clipPath><circle cx="70" cy="84" r="40" fill="#D99465"/><g clip-path="url(#c14)"><g transform="translate(-4 -5)"><circle cx="70" cy="84" r="40" fill="#F2B98F"/></g><ellipse cx="52" cy="62" rx="11" ry="7" transform="rotate(-35 52 62)" fill="#fff" opacity="0.35"/></g><circle cx="70" cy="84" r="40" fill="none" stroke="#2B1810" stroke-width="4.5"/><clipPath id="c3"><path d="M 30 86 C 26 54 48 42 70 42 C 92 42 114 54 110 86 C 104 72 92 60 70 60 C 48 60 36 72 30 86 Z" /></clipPath><path d="M 30 86 C 26 54 48 42 70 42 C 92 42 114 54 110 86 C 104 72 92 60 70 60 C 48 60 36 72 30 86 Z" fill="#A39F9A"/><g clip-path="url(#c3)"><g transform="translate(-4 -5)"><path d="M 30 86 C 26 54 48 42 70 42 C 92 42 114 54 110 86 C 104 72 92 60 70 60 C 48 60 36 72 30 86 Z" fill="#C9C6C2"/></g></g><path d="M 30 86 C 26 54 48 42 70 42 C 92 42 114 54 110 86 C 104 72 92 60 70 60 C 48 60 36 72 30 86 Z" fill="none" stroke="#2B1810" stroke-width="4.5"/><path d="M 70 44 Q 66 52 70 60" fill="none" stroke="#2B1810" stroke-width="2"/><ellipse cx="45" cy="100" rx="8" ry="5" fill="#FF8FA3" opacity="0.6"/><ellipse cx="95" cy="100" rx="8" ry="5" fill="#FF8FA3" opacity="0.6"/><ellipse cx="55" cy="89" rx="5.5" ry="7" fill="#2B1810"/><circle cx="53.2" cy="86" r="2.2" fill="#fff"/><path d="M 48 75 L 62 75" fill="none" stroke="#2B1810" stroke-width="3"/><ellipse cx="85" cy="89" rx="5.5" ry="7" fill="#2B1810"/><circle cx="83.2" cy="86" r="2.2" fill="#fff"/><path d="M 78 75 L 92 75" fill="none" stroke="#2B1810" stroke-width="3"/><path d="M 66.5 97 Q 70 101 73.5 97" fill="none" stroke="#2B1810" stroke-width="2.4"/><path d="M 62 109 Q 70 111 78 108" fill="none" stroke="#2B1810" stroke-width="3"/>
</svg>
