<svg xmlns="http://www.w3.org/2000/svg" width="128" height="36" viewBox="0 0 128 36" stroke-linejoin="round" stroke-linecap="round">
<clipPath id="c1"><path d="M 9 6 L 119 6 Q 124 6 124 11 L 122 21 Q 119 31 107 31 L 21 31 Q 9 31 6 21 L 4 11 Q 4 6 9 6 Z" /></clipPath><path d="M 9 6 L 119 6 Q 124 6 124 11 L 122 21 Q 119 31 107 31 L 21 31 Q 9 31 6 21 L 4 11 Q 4 6 9 6 Z" fill="#CF7A1F"/><g clip-path="url(#c1)"><g transform="translate(-4 -5)"><path d="M 9 6 L 119 6 Q 124 6 124 11 L 122 21 Q 119 31 107 31 L 21 31 Q 9 31 6 21 L 4 11 Q 4 6 9 6 Z" fill="#F4A940"/></g><rect x="0" y="0" width="128" height="11" fill="#FFE4AE"/><path d="M 4 11 L 124 11" stroke="#CF7A1F" stroke-width="1.6" opacity="0.6"/></g><path d="M 9 6 L 119 6 Q 124 6 124 11 L 122 21 Q 119 31 107 31 L 21 31 Q 9 31 6 21 L 4 11 Q 4 6 9 6 Z" fill="none" stroke="#2B1810" stroke-width="4.5"/>
</svg>
