<svg xmlns="http://www.w3.org/2000/svg" width="96" height="96" viewBox="0 0 96 96" stroke-linejoin="round" stroke-linecap="round">
<clipPath id="c17"><path d="M 34 50 L 48 90 L 62 50 Z" /></clipPath><path d="M 34 50 L 48 90 L 62 50 Z" fill="#F4A940"/><g clip-path="url(#c17)"><g transform="translate(-4 -5)"><path d="M 34 50 L 48 90 L 62 50 Z" fill="#FFD27A"/></g></g><path d="M 34 50 L 48 90 L 62 50 Z" fill="none" stroke="#2B1810" stroke-width="4.5"/><path d="M 40 58 L 56 74 M 56 58 L 42 78 M 38 52 L 58 52" stroke="#CF7A1F" stroke-width="2"/><clipPath id="c18"><circle cx="48" cy="44" r="17" /></clipPath><circle cx="48" cy="44" r="17" fill="#E2728F"/><g clip-path="url(#c18)"><g transform="translate(-4 -5)"><circle cx="48" cy="44" r="17" fill="#FF9EB8"/></g><ellipse cx="41.2" cy="37.2" rx="5.9" ry="3.4" transform="rotate(-30 41.2 37.2)" fill="#fff" opacity="0.6"/></g><circle cx="48" cy="44" r="17" fill="none" stroke="#2B1810" stroke-width="4.5"/><clipPath id="c19"><circle cx="48" cy="26" r="13" /></clipPath><circle cx="48" cy="26" r="13" fill="#E8D49A"/><g clip-path="url(#c19)"><g transform="translate(-4 -5)"><circle cx="48" cy="26" r="13" fill="#FFF4D2"/></g><ellipse cx="42.8" cy="20.8" rx="4.6" ry="2.6" transform="rotate(-30 42.8 20.8)" fill="#fff" opacity="0.6"/></g><circle cx="48" cy="26" r="13" fill="none" stroke="#2B1810" stroke-width="4.5"/><clipPath id="c20"><circle cx="51" cy="12" r="6" /></clipPath><circle cx="51" cy="12" r="6" fill="#C23C30"/><g clip-path="url(#c20)"><g transform="translate(-1.5 -1.5)"><circle cx="51" cy="12" r="6" fill="#EE5A4B"/></g></g><circle cx="51" cy="12" r="6" fill="none" stroke="#2B1810" stroke-width="4.5"/>
</svg>
