<svg xmlns="http://www.w3.org/2000/svg" width="100" height="178" viewBox="0 0 100 178" stroke-linejoin="round" stroke-linecap="round">
<filter id="f1" x="-50%" y="-50%" width="200%" height="200%"><feGaussianBlur stdDeviation="2.5"/></filter><ellipse cx="54" cy="173.5" rx="30" ry="7" fill="#2B1810" opacity="0.2" filter="url(#f1)"/><path d="M 50 120 C 48 90 54 70 50 40" stroke="#2B1810" stroke-width="9" fill="none"/><path d="M 50 120 C 48 90 54 70 50 40" stroke="#8E5A3A" stroke-width="5" fill="none"/><clipPath id="c2"><circle cx="50" cy="34" r="26" /></clipPath><circle cx="50" cy="34" r="26" fill="#3A8F3F"/><g clip-path="url(#c2)"><g transform="translate(-4 -5)"><circle cx="50" cy="34" r="26" fill="#5CBF58"/></g><ellipse cx="40.9" cy="23.6" rx="9.1" ry="5.2" transform="rotate(-30 40.9 23.6)" fill="#fff" opacity="0.35"/></g><circle cx="50" cy="34" r="26" fill="none" stroke="#2B1810" stroke-width="4.5"/><clipPath id="c3"><circle cx="28" cy="58" r="22" /></clipPath><circle cx="28" cy="58" r="22" fill="#3A8F3F"/><g clip-path="url(#c3)"><g transform="translate(-4 -5)"><circle cx="28" cy="58" r="22" fill="#5CBF58"/></g><ellipse cx="20.3" cy="49.2" rx="7.7" ry="4.4" transform="rotate(-30 20.3 49.2)" fill="#fff" opacity="0.35"/></g><circle cx="28" cy="58" r="22" fill="none" stroke="#2B1810" stroke-width="4.5"/><clipPath id="c4"><circle cx="72" cy="56" r="22" /></clipPath><circle cx="72" cy="56" r="22" fill="#3A8F3F"/><g clip-path="url(#c4)"><g transform="translate(-4 -5)"><circle cx="72" cy="56" r="22" fill="#5CBF58"/></g><ellipse cx="64.3" cy="47.2" rx="7.7" ry="4.4" transform="rotate(-30 64.3 47.2)" fill="#fff" opacity="0.35"/></g><circle cx="72" cy="56" r="22" fill="none" stroke="#2B1810" stroke-width="4.5"/><clipPath id="c5"><circle cx="36" cy="84" r="18" /></clipPath><circle cx="36" cy="84" r="18" fill="#3A8F3F"/><g clip-path="url(#c5)"><g transform="translate(-4 -5)"><circle cx="36" cy="84" r="18" fill="#5CBF58"/></g><ellipse cx="29.7" cy="76.8" rx="6.3" ry="3.6" transform="rotate(-30 29.7 76.8)" fill="#fff" opacity="0.35"/></g><circle cx="36" cy="84" r="18" fill="none" stroke="#2B1810" stroke-width="4.5"/><clipPath id="c6"><circle cx="66" cy="86" r="18" /></clipPath><circle cx="66" cy="86" r="18" fill="#3A8F3F"/><g clip-path="url(#c6)"><g transform="translate(-4 -5)"><circle cx="66" cy="86" r="18" fill="#5CBF58"/></g><ellipse cx="59.7" cy="78.8" rx="6.3" ry="3.6" transform="rotate(-30 59.7 78.8)" fill="#fff" opacity="0.35"/></g><circle cx="66" cy="86" r="18" fill="none" stroke="#2B1810" stroke-width="4.5"/><clipPath id="c7"><path d="M 25 124 L 75 124 L 69 166 Q 68 171 63 171 L 37 171 Q 32 171 31 166 Z" /></clipPath><path d="M 25 124 L 75 124 L 69 166 Q 68 171 63 171 L 37 171 Q 32 171 31 166 Z" fill="#B9523B"/><g clip-path="url(#c7)"><g transform="translate(-4 -5)"><path d="M 25 124 L 75 124 L 69 166 Q 68 171 63 171 L 37 171 Q 32 171 31 166 Z" fill="#E9785B"/></g><ellipse cx="35" cy="136" rx="3" ry="9" transform="rotate(-8 35 136)" fill="#fff" opacity="0.4"/></g><path d="M 25 124 L 75 124 L 69 166 Q 68 171 63 171 L 37 171 Q 32 171 31 166 Z" fill="none" stroke="#2B1810" stroke-width="4.5"/><clipPath id="c8"><rect x="20" y="116" width="60" height="13" rx="5" /></clipPath><rect x="20" y="116" width="60" height="13" rx="5" fill="#B9523B"/><g clip-path="url(#c8)"><g transform="translate(-2 -2.5)"><rect x="20" y="116" width="60" height="13" rx="5" fill="#E9785B"/></g><ellipse cx="31" cy="119" rx="8" ry="2" transform="rotate(0 31 119)" fill="#fff" opacity="0.5"/></g><rect x="20" y="116" width="60" height="13" rx="5" fill="none" stroke="#2B1810" stroke-width="4.5"/>
</svg>
